# xmcd
#
# Track frame offsets:
#	150
#	24281
#	39774
#	56736
#	70874
#	92716
#	113618
#	130186
#	150299
#	170215
#	192628
#	210397
#	224234
#	243045
#	260968
#	278937
#	295074
#	312999
#	330597
#
# Disc length: 4705 seconds
#
# Revision: 0
# Processed by: cddbd v1.4PL0 Copyright (c) Steve Scherf et al.
# Submitted via: dBpowerAMP V4.0
#
DISCID=1a125f13
DTITLE=Rap - Rap Collection
DYEAR=1900
DGENRE=Porn Groove
TTITLE0=Eminem
TTITLE1=s
TTITLE2=q
TTITLE3=w
TTITLE4=e
TTITLE5=r
TTITLE6=t
TTITLE7=y
TTITLE8=u
TTITLE9=i
TTITLE10=o
TTITLE11=p
TTITLE12=a
TTITLE13=s
TTITLE14=d
TTITLE15=f
TTITLE16=g
TTITLE17=n
TTITLE18=h
EXTD=\ntusrt
EXTT0=
EXTT1=
EXTT2=
EXTT3=
EXTT4=
EXTT5=
EXTT6=
EXTT7=
EXTT8=
EXTT9=
EXTT10=
EXTT11=
EXTT12=
EXTT13=
EXTT14=
EXTT15=
EXTT16=
EXTT17=
EXTT18=
PLAYORDER=
